<svg xmlns="http://www.w3.org/2000/svg" viewBox="0 0 512 512" width="512" height="512" fill="none">
  <!--
    Earnest Page – "The Confidant" favicon
    Two overlapping minimalist human profiles facing right.
    Back = solid fill, Front = outline only.
    White (#FFF) on transparent.
  -->

  <!-- Back profile: solid white silhouette, slightly left -->
  <path
    d="
      M 148 236
      C 148 202, 156 170, 172 146
      C 188 122, 212 106, 240 106
      C 268 106, 292 122, 308 146
      C 324 170, 332 202, 332 236
      C 332 258, 326 278, 314 294
      C 304 308, 290 318, 278 330
      C 268 340, 262 352, 262 366
      C 262 378, 270 390, 284 398
      C 302 408, 324 418, 342 430
      C 364 444, 380 462, 388 484
      L 92 484
      C 100 462, 116 444, 138 430
      C 156 418, 178 408, 196 398
      C 210 390, 218 378, 218 366
      C 218 352, 212 340, 202 330
      C 190 318, 176 308, 166 294
      C 154 278, 148 258, 148 236
      Z
    "
    fill="#FFFFFF"
  />

  <!-- Front profile: outline only, shifted right and slightly up -->
  <path
    d="
      M 200 210
      C 200 176, 208 144, 224 120
      C 240 96, 264 80, 292 80
      C 320 80, 344 96, 360 120
      C 376 144, 384 176, 384 210
      C 384 232, 378 252, 366 268
      C 356 282, 342 292, 330 304
      C 320 314, 314 326, 314 340
      C 314 352, 322 364, 336 372
      C 354 382, 376 392, 394 404
      C 416 418, 432 436, 440 458
      L 144 458
      C 152 436, 168 418, 190 404
      C 208 392, 230 382, 248 372
      C 262 364, 270 352, 270 340
      C 270 326, 264 314, 254 304
      C 242 292, 228 282, 218 268
      C 206 252, 200 232, 200 210
      Z
    "
    fill="none"
    stroke="#FFFFFF"
    stroke-width="7"
    stroke-linejoin="round"
    stroke-linecap="round"
  />
</svg>
